<mxfile host="app.diagrams.net" agent="Mozilla/5.0 (Windows NT 10.0; Win64; x64) AppleWebKit/537.36 (KHTML, like Gecko) Chrome/133.0.0.0 Safari/537.36" version="26.0.11">
  <diagram name="Page-1" id="sfowiFteUxeTspQqUSiM">
    <mxGraphModel dx="1050" dy="571" grid="1" gridSize="10" guides="1" tooltips="1" connect="1" arrows="1" fold="1" page="1" pageScale="1" pageWidth="850" pageHeight="1100" math="0" shadow="0">
      <root>
        <mxCell id="0" />
        <mxCell id="1" parent="0" />
        <mxCell id="skMd1uj35qmkCoN0t2dj-22" value="" style="edgeStyle=orthogonalEdgeStyle;rounded=0;orthogonalLoop=1;jettySize=auto;html=1;" edge="1" parent="1" source="skMd1uj35qmkCoN0t2dj-18" target="skMd1uj35qmkCoN0t2dj-21">
          <mxGeometry relative="1" as="geometry" />
        </mxCell>
        <mxCell id="skMd1uj35qmkCoN0t2dj-18" value="start" style="ellipse;whiteSpace=wrap;html=1;" vertex="1" parent="1">
          <mxGeometry x="360" width="120" height="80" as="geometry" />
        </mxCell>
        <mxCell id="skMd1uj35qmkCoN0t2dj-24" value="" style="edgeStyle=orthogonalEdgeStyle;rounded=0;orthogonalLoop=1;jettySize=auto;html=1;" edge="1" parent="1" source="skMd1uj35qmkCoN0t2dj-21" target="skMd1uj35qmkCoN0t2dj-23">
          <mxGeometry relative="1" as="geometry" />
        </mxCell>
        <mxCell id="skMd1uj35qmkCoN0t2dj-21" value="Take Input for Year" style="rounded=0;whiteSpace=wrap;html=1;" vertex="1" parent="1">
          <mxGeometry x="360" y="130" width="120" height="60" as="geometry" />
        </mxCell>
        <mxCell id="skMd1uj35qmkCoN0t2dj-26" value="no" style="edgeStyle=orthogonalEdgeStyle;rounded=0;orthogonalLoop=1;jettySize=auto;html=1;" edge="1" parent="1" source="skMd1uj35qmkCoN0t2dj-23" target="skMd1uj35qmkCoN0t2dj-25">
          <mxGeometry relative="1" as="geometry" />
        </mxCell>
        <mxCell id="skMd1uj35qmkCoN0t2dj-30" value="yes" style="edgeStyle=orthogonalEdgeStyle;rounded=0;orthogonalLoop=1;jettySize=auto;html=1;" edge="1" parent="1" source="skMd1uj35qmkCoN0t2dj-23" target="skMd1uj35qmkCoN0t2dj-29">
          <mxGeometry relative="1" as="geometry" />
        </mxCell>
        <mxCell id="skMd1uj35qmkCoN0t2dj-23" value="if&lt;div&gt;year%4 == 0&lt;/div&gt;" style="rhombus;whiteSpace=wrap;html=1;rounded=0;" vertex="1" parent="1">
          <mxGeometry x="580" y="120" width="80" height="80" as="geometry" />
        </mxCell>
        <mxCell id="skMd1uj35qmkCoN0t2dj-25" value="Not leap year" style="whiteSpace=wrap;html=1;rounded=0;" vertex="1" parent="1">
          <mxGeometry x="720" y="130" width="120" height="60" as="geometry" />
        </mxCell>
        <mxCell id="skMd1uj35qmkCoN0t2dj-32" value="no" style="edgeStyle=orthogonalEdgeStyle;rounded=0;orthogonalLoop=1;jettySize=auto;html=1;" edge="1" parent="1" source="skMd1uj35qmkCoN0t2dj-29" target="skMd1uj35qmkCoN0t2dj-31">
          <mxGeometry relative="1" as="geometry" />
        </mxCell>
        <mxCell id="skMd1uj35qmkCoN0t2dj-34" value="yes" style="edgeStyle=orthogonalEdgeStyle;rounded=0;orthogonalLoop=1;jettySize=auto;html=1;" edge="1" parent="1" source="skMd1uj35qmkCoN0t2dj-29" target="skMd1uj35qmkCoN0t2dj-33">
          <mxGeometry relative="1" as="geometry" />
        </mxCell>
        <mxCell id="skMd1uj35qmkCoN0t2dj-38" value="yes" style="edgeStyle=orthogonalEdgeStyle;rounded=0;orthogonalLoop=1;jettySize=auto;html=1;" edge="1" parent="1" source="skMd1uj35qmkCoN0t2dj-29" target="skMd1uj35qmkCoN0t2dj-37">
          <mxGeometry relative="1" as="geometry" />
        </mxCell>
        <mxCell id="skMd1uj35qmkCoN0t2dj-29" value="is cleanly&lt;div&gt;divisible&amp;nbsp;&lt;/div&gt;&lt;div&gt;by 100&lt;/div&gt;" style="rhombus;whiteSpace=wrap;html=1;rounded=0;" vertex="1" parent="1">
          <mxGeometry x="580" y="280" width="80" height="80" as="geometry" />
        </mxCell>
        <mxCell id="skMd1uj35qmkCoN0t2dj-31" value="not leap year" style="whiteSpace=wrap;html=1;rounded=0;" vertex="1" parent="1">
          <mxGeometry x="720" y="290" width="120" height="60" as="geometry" />
        </mxCell>
        <mxCell id="skMd1uj35qmkCoN0t2dj-36" value="no" style="edgeStyle=orthogonalEdgeStyle;rounded=0;orthogonalLoop=1;jettySize=auto;html=1;" edge="1" parent="1" source="skMd1uj35qmkCoN0t2dj-33" target="skMd1uj35qmkCoN0t2dj-35">
          <mxGeometry relative="1" as="geometry" />
        </mxCell>
        <mxCell id="skMd1uj35qmkCoN0t2dj-40" value="yes" style="edgeStyle=orthogonalEdgeStyle;rounded=0;orthogonalLoop=1;jettySize=auto;html=1;" edge="1" parent="1" source="skMd1uj35qmkCoN0t2dj-33" target="skMd1uj35qmkCoN0t2dj-39">
          <mxGeometry relative="1" as="geometry" />
        </mxCell>
        <mxCell id="skMd1uj35qmkCoN0t2dj-33" value="is cleanly&amp;nbsp;&lt;div&gt;d&lt;span style=&quot;background-color: transparent; color: light-dark(rgb(0, 0, 0), rgb(255, 255, 255));&quot;&gt;ivisble by 400&lt;/span&gt;&lt;/div&gt;" style="rhombus;whiteSpace=wrap;html=1;rounded=0;" vertex="1" parent="1">
          <mxGeometry x="420" y="280" width="80" height="80" as="geometry" />
        </mxCell>
        <mxCell id="skMd1uj35qmkCoN0t2dj-35" value="not leap year" style="whiteSpace=wrap;html=1;rounded=0;" vertex="1" parent="1">
          <mxGeometry x="240" y="290" width="120" height="60" as="geometry" />
        </mxCell>
        <mxCell id="skMd1uj35qmkCoN0t2dj-37" value="is leap year" style="whiteSpace=wrap;html=1;rounded=0;" vertex="1" parent="1">
          <mxGeometry x="560" y="450" width="120" height="60" as="geometry" />
        </mxCell>
        <mxCell id="skMd1uj35qmkCoN0t2dj-39" value="is leap year" style="whiteSpace=wrap;html=1;rounded=0;" vertex="1" parent="1">
          <mxGeometry x="400" y="450" width="120" height="60" as="geometry" />
        </mxCell>
      </root>
    </mxGraphModel>
  </diagram>
</mxfile>
